<svg xmlns="http://www.w3.org/2000/svg" id="Layer_1" data-name="Layer 1" viewBox="0 0 487.42 65.09"><defs><style>.cls-1{fill:#fad2cf}.cls-2{fill:#aecbfa}.cls-3{fill:#a8dab5}.cls-4{fill:#fbbc04}.cls-5{fill:#fde293}.cls-6{fill:#4285f4}.cls-7{fill:#34a853}.cls-10,.cls-11,.cls-12,.cls-13,.cls-8{fill:none;stroke-miterlimit:10}.cls-8{stroke:#0d652d}.cls-10,.cls-11,.cls-12,.cls-8{stroke-width:.94px}.cls-9{fill:#ea4335}.cls-10{stroke:#e37400}.cls-11{stroke:#174ea6}.cls-12,.cls-13{stroke:#a50e0e}.cls-13{stroke-width:.93px}</style></defs><title>Artboard 1</title><rect width="26.5" height="65.39" x="235.29" y="-.14" class="cls-1"/><rect width="26.5" height="65.39" x="443.93" y="-.14" class="cls-2"/><rect width="26.5" height="65.39" x=".08" y="-.14" class="cls-3"/><path d="M98.7,65.25h0V-.14h0A23.39,23.39,0,0,0,75.31,23.24V41.87A23.39,23.39,0,0,0,98.7,65.25Z" class="cls-4"/><rect width="29.63" height="65.39" x="98.7" y="-.14" class="cls-5"/><polygon points="144.37 -.14 182.12 65.25 182.12 -.14 144.37 -.14" class="cls-2"/><polygon points="219.87 -.14 182.12 -.14 182.12 65.25 182.12 65.25 219.87 -.14" class="cls-6"/><path d="M26.58-.14a32.7,32.7,0,0,1,0,65.39Z" class="cls-7"/><path d="M26.58,52.77a20.21,20.21,0,0,0,0-40.42H13.33V27.82" class="cls-8"/><path d="M394.45,48.9a24.52,24.52,0,1,1,0-49Z" class="cls-4"/><rect width="21.8" height="16.35" x="261.79" y="-.14" class="cls-9"/><rect width="16.66" height="16.35" x="427.27" y="-.14" class="cls-6"/><rect width="16.66" height="16.35" x="470.43" y="-.14" class="cls-6"/><rect width="16.35" height="16.35" x="261.79" y="32.56" class="cls-9"/><rect width="21.8" height="16.35" x="394.45" y="-.14" class="cls-4"/><path d="M394.45,16.21V48.9h-21.8V65.25h21.8a24.52,24.52,0,1,0,0-49Z" class="cls-5"/><path d="M383,36.07A16.35,16.35,0,0,1,394.45,8h12.26" class="cls-10"/><line x1="435.6" x2="478.77" y1="8.19" y2="8.19" class="cls-11"/><path d="M322.56,65.25h0V-.14h0a23.38,23.38,0,0,0-23.38,23.38V41.87A23.38,23.38,0,0,0,322.56,65.25Z" class="cls-7"/><rect width="29.63" height="65.39" x="322.56" y="-.14" class="cls-3"/><line x1="315.27" x2="311.05" y1="22.68" y2="22.65" class="cls-8"/><line x1="352.19" x2="323.17" y1="22.72" y2="22.72" class="cls-8"/><line x1="352.19" x2="343.53" y1="42.39" y2="42.39" class="cls-8"/><line x1="335.62" x2="329.03" y1="42.39" y2="42.39" class="cls-8"/><circle cx="182.12" cy="38.44" r="4.16" class="cls-11"/><circle cx="196.66" cy="13.27" r="4.16" class="cls-11"/><line x1="194.58" x2="184.18" y1="16.86" y2="34.89" class="cls-11"/><circle cx="167.58" cy="13.27" r="4.16" class="cls-11"/><line x1="169.66" x2="180.07" y1="16.86" y2="34.89" class="cls-11"/><rect width="6.71" height="6.71" x="9.97" y="29.2" class="cls-8" transform="translate(26.92 0.11) rotate(45)"/><rect width="5.59" height="5.59" x="336.78" y="39.6" class="cls-8" transform="translate(129.43 -227.7) rotate(45)"/><rect width="5.59" height="5.59" x="316.5" y="19.93" class="cls-8" transform="translate(109.59 -219.12) rotate(45)"/><circle cx="457.18" cy="22.02" r="3.95" class="cls-11"/><circle cx="457.18" cy="37.17" r="3.95" class="cls-11"/><circle cx="457.18" cy="52.33" r="3.95" class="cls-11"/><path d="M386.72,57.08h7.73a16.35,16.35,0,0,0,0-32.7" class="cls-10"/><polyline points="265.38 40.67 248.54 40.67 248.54 57.51" class="cls-12"/><polyline points="272.66 8.03 248.54 8.03 248.54 32.15" class="cls-13"/><line x1="128.33" x2="98.58" y1="22.72" y2="22.72" class="cls-10"/><line x1="128.33" x2="98.58" y1="32.56" y2="32.56" class="cls-10"/><line x1="128.33" x2="98.58" y1="42.39" y2="42.39" class="cls-10"/></svg>